RobotoDelta-YOPQmax.ufo
<glyph name="exclam" format="1">
  <advance width="620"/>
  <unicode hex="0021"/>
  <outline>
    <contour>
      <point x="227" y="375" type="line"/>
      <point x="211" y="1456" type="line"/>
      <point x="407" y="1456" type="line"/>
      <point x="393" y="375" type="line"/>
    </contour>
    <contour>
      <point x="189" y="149" type="qcurve" smooth="yes"/>
      <point x="189" y="238"/>
      <point x="267" y="320"/>
      <point x="309" y="320" type="qcurve" smooth="yes"/>
      <point x="349" y="320"/>
      <point x="431" y="238"/>
      <point x="431" y="149" type="qcurve" smooth="yes"/>
      <point x="431" y="61"/>
      <point x="349" y="-20"/>
      <point x="309" y="-20" type="qcurve" smooth="yes"/>
      <point x="268" y="-20"/>
      <point x="189" y="61"/>
    </contour>
  </outline>
</glyph>
<glyph name="plus" format="1">
  <advance width="1170"/>
  <unicode hex="002B"/>
  <outline>
    <contour>
      <point x="86" y="516" type="line"/>
      <point x="86" y="794" type="line"/>
      <point x="1084" y="794" type="line"/>
      <point x="1084" y="516" type="line"/>
    </contour>
    <contour>
      <point x="493" y="128" type="line"/>
      <point x="493" y="1187" type="line"/>
      <point x="677" y="1187" type="line"/>
      <point x="677" y="128" type="line"/>
    </contour>
  </outline>
</glyph>
<glyph name="two" format="1">
  <advance width="1156"/>
  <unicode hex="0032"/>
  <outline>
    <contour>
      <point x="102" y="0" type="line"/>
      <point x="102" y="133" type="line"/>
      <point x="630" y="697" type="line" smooth="yes"/>
      <point x="744" y="819"/>
      <point x="837" y="971"/>
      <point x="837" y="1048" type="qcurve" smooth="yes"/>
      <point x="837" y="1116"/>
      <point x="707" y="1209"/>
      <point x="577" y="1209" type="qcurve" smooth="yes"/>
      <point x="438" y="1209"/>
      <point x="298" y="1102"/>
      <point x="298" y="1037" type="qcurve" smooth="yes"/>
      <point x="298" y="1028" type="line"/>
      <point x="112" y="1028" type="line"/>
      <point x="112" y="1035" type="line" smooth="yes"/>
      <point x="112" y="1218"/>
      <point x="373" y="1476"/>
      <point x="577" y="1476" type="qcurve" smooth="yes"/>
      <point x="787" y="1476"/>
      <point x="1031" y="1249"/>
      <point x="1031" y="1096" type="qcurve" smooth="yes"/>
      <point x="1031" y="950"/>
      <point x="867" y="711"/>
      <point x="754" y="593" type="qcurve" smooth="yes"/>
      <point x="438" y="265" type="line"/>
      <point x="1075" y="265" type="line"/>
      <point x="1075" y="0" type="line"/>
    </contour>
  </outline>
</glyph>
<glyph name="five" format="1">
  <advance width="1156"/>
  <unicode hex="0035"/>
  <outline>
    <contour>
      <point x="101" y="373" type="line"/>
      <point x="285" y="373" type="line"/>
      <point x="285" y="371" type="line" smooth="yes"/>
      <point x="285" y="318"/>
      <point x="431" y="238"/>
      <point x="574" y="238" type="qcurve" smooth="yes"/>
      <point x="717" y="238"/>
      <point x="868" y="374"/>
      <point x="868" y="485" type="qcurve" smooth="yes"/>
      <point x="868" y="587"/>
      <point x="715" y="719"/>
      <point x="580" y="719" type="qcurve" smooth="yes"/>
      <point x="461" y="719"/>
      <point x="319" y="662"/>
      <point x="278" y="625" type="qcurve"/>
      <point x="146" y="685" type="line"/>
      <point x="224" y="1456" type="line"/>
      <point x="981" y="1456" type="line"/>
      <point x="981" y="1173" type="line"/>
      <point x="367" y="1173" type="line"/>
      <point x="338" y="918" type="line"/>
      <point x="366" y="941"/>
      <point x="521" y="996"/>
      <point x="623" y="996" type="qcurve" smooth="yes"/>
      <point x="803" y="996"/>
      <point x="1052" y="716"/>
      <point x="1052" y="481" type="qcurve" smooth="yes"/>
      <point x="1052" y="254"/>
      <point x="801" y="-30"/>
      <point x="585" y="-30" type="qcurve" smooth="yes"/>
      <point x="379" y="-30"/>
      <point x="101" y="170"/>
      <point x="101" y="367" type="qcurve" smooth="yes"/>
    </contour>
  </outline>
</glyph>
<glyph name="nine" format="1">
  <advance width="1156"/>
  <unicode hex="0039"/>
  <outline>
    <contour>
      <point x="65" y="985" type="qcurve" smooth="yes"/>
      <point x="65" y="1195"/>
      <point x="326" y="1481"/>
      <point x="543" y="1481" type="qcurve" smooth="yes"/>
      <point x="746" y="1481"/>
      <point x="1059" y="1194"/>
      <point x="1059" y="824" type="qcurve" smooth="yes"/>
      <point x="1059" y="795" type="line" smooth="yes"/>
      <point x="1059" y="414"/>
      <point x="656" y="-27"/>
      <point x="288" y="-27" type="qcurve" smooth="yes"/>
      <point x="272" y="-27" type="line"/>
      <point x="272" y="243" type="line"/>
      <point x="302" y="243" type="line" smooth="yes"/>
      <point x="565" y="243"/>
      <point x="872" y="482"/>
      <point x="872" y="790" type="qcurve" smooth="yes"/>
      <point x="872" y="835" type="line" smooth="yes"/>
      <point x="872" y="1023"/>
      <point x="710" y="1211"/>
      <point x="547" y="1211" type="qcurve" smooth="yes"/>
      <point x="392" y="1211"/>
      <point x="251" y="1089"/>
      <point x="251" y="980" type="qcurve" smooth="yes"/>
      <point x="251" y="873"/>
      <point x="395" y="756"/>
      <point x="543" y="756" type="qcurve" smooth="yes"/>
      <point x="694" y="756"/>
      <point x="858" y="891"/>
      <point x="888" y="1086" type="qcurve"/>
      <point x="905" y="1085" type="line"/>
      <point x="902" y="798" type="line"/>
      <point x="850" y="638"/>
      <point x="636" y="488"/>
      <point x="493" y="488" type="qcurve" smooth="yes"/>
      <point x="306" y="488"/>
      <point x="65" y="769"/>
    </contour>
  </outline>
</glyph>
<glyph name="A" format="1">
  <advance width="1280"/>
  <unicode hex="0041"/>
  <outline>
    <contour>
      <point x="0" y="0" type="line"/>
      <point x="555" y="1466" type="line"/>
      <point x="724" y="1466" type="line"/>
      <point x="1280" y="0" type="line"/>
      <point x="1082" y="0" type="line"/>
      <point x="682" y="1099" type="line" smooth="yes"/>
      <point x="672" y="1127"/>
      <point x="651" y="1207"/>
      <point x="647" y="1228" type="qcurve"/>
      <point x="636" y="1228" type="line"/>
      <point x="630" y="1206"/>
      <point x="608" y="1127"/>
      <point x="598" y="1099" type="qcurve" smooth="yes"/>
      <point x="193" y="0" type="line"/>
    </contour>
    <contour>
      <point x="197" y="348" type="line"/>
      <point x="309" y="619" type="line"/>
      <point x="989" y="619" type="line"/>
      <point x="1101" y="348" type="line"/>
    </contour>
    <contour>
      <point x="640" y="1432" type="move" name="top"/>
    </contour>
  </outline>
</glyph>
<glyph name="D" format="1">
  <advance width="1369"/>
  <unicode hex="0044"/>
  <outline>
    <contour>
      <point x="170" y="0" type="line"/>
      <point x="170" y="1456" type="line"/>
      <point x="602" y="1456" type="line" smooth="yes"/>
      <point x="887" y="1456"/>
      <point x="1254" y="1085"/>
      <point x="1254" y="771" type="qcurve" smooth="yes"/>
      <point x="1254" y="684" type="line" smooth="yes"/>
      <point x="1254" y="370"/>
      <point x="885" y="0"/>
      <point x="584" y="0" type="qcurve" smooth="yes"/>
    </contour>
    <contour>
      <point x="363" y="270" type="line"/>
      <point x="584" y="270" type="line" smooth="yes"/>
      <point x="834" y="270"/>
      <point x="1063" y="514"/>
      <point x="1063" y="684" type="qcurve" smooth="yes"/>
      <point x="1063" y="773" type="line" smooth="yes"/>
      <point x="1063" y="952"/>
      <point x="835" y="1185"/>
      <point x="602" y="1185" type="qcurve" smooth="yes"/>
      <point x="363" y="1185" type="line"/>
    </contour>
  </outline>
</glyph>
<glyph name="G" format="1">
  <advance width="1358"/>
  <unicode hex="0047"/>
  <outline>
    <contour>
      <point x="115" y="672" type="qcurve" smooth="yes"/>
      <point x="115" y="785" type="line" smooth="yes"/>
      <point x="115" y="1109"/>
      <point x="449" y="1486"/>
      <point x="731" y="1486" type="qcurve" smooth="yes"/>
      <point x="977" y="1486"/>
      <point x="1246" y="1229"/>
      <point x="1277" y="1042" type="qcurve" smooth="yes"/>
      <point x="1279" y="1030" type="line"/>
      <point x="1085" y="1030" type="line"/>
      <point x="1083" y="1042" type="line" smooth="yes"/>
      <point x="1072" y="1109"/>
      <point x="896" y="1212"/>
      <point x="723" y="1212" type="qcurve" smooth="yes"/>
      <point x="514" y="1212"/>
      <point x="311" y="961"/>
      <point x="311" y="787" type="qcurve" smooth="yes"/>
      <point x="311" y="672" type="line" smooth="yes"/>
      <point x="311" y="491"/>
      <point x="531" y="243"/>
      <point x="734" y="243" type="qcurve" smooth="yes"/>
      <point x="920" y="243"/>
      <point x="1076" y="301"/>
      <point x="1092" y="313" type="qcurve"/>
      <point x="1092" y="520" type="line"/>
      <point x="729" y="520" type="line"/>
      <point x="729" y="789" type="line"/>
      <point x="1278" y="789" type="line"/>
      <point x="1278" y="172" type="line"/>
      <point x="1221" y="103"/>
      <point x="936" y="-29"/>
      <point x="732" y="-29" type="qcurve" smooth="yes"/>
      <point x="469" y="-29"/>
      <point x="115" y="346"/>
    </contour>
  </outline>
</glyph>
<glyph name="O" format="1">
  <advance width="1461"/>
  <unicode hex="004F"/>
  <outline>
    <contour>
      <point x="311" y="682" type="line" smooth="yes"/>
      <point x="311" y="494"/>
      <point x="530" y="248"/>
      <point x="732" y="248" type="qcurve" smooth="yes"/>
      <point x="944" y="248"/>
      <point x="1150" y="492"/>
      <point x="1150" y="682" type="qcurve" smooth="yes"/>
      <point x="1150" y="776" type="line" smooth="yes"/>
      <point x="1150" y="962"/>
      <point x="940" y="1207"/>
      <point x="730" y="1207" type="qcurve" smooth="yes"/>
      <point x="527" y="1207"/>
      <point x="311" y="964"/>
      <point x="311" y="776" type="qcurve" smooth="yes"/>
    </contour>
    <contour>
      <point x="115" y="682" type="qcurve" smooth="yes"/>
      <point x="115" y="774" type="line" smooth="yes"/>
      <point x="115" y="1099"/>
      <point x="465" y="1486"/>
      <point x="730" y="1486" type="qcurve" smooth="yes"/>
      <point x="1004" y="1486"/>
      <point x="1346" y="1102"/>
      <point x="1346" y="774" type="qcurve" smooth="yes"/>
      <point x="1346" y="682" type="line" smooth="yes"/>
      <point x="1346" y="356"/>
      <point x="1004" y="-30"/>
      <point x="732" y="-30" type="qcurve" smooth="yes"/>
      <point x="463" y="-30"/>
      <point x="115" y="352"/>
    </contour>
    <contour>
      <point x="730.0" y="1432.0" type="move" name="top"/>
    </contour>
  </outline>
</glyph>
<glyph name="P" format="1">
  <advance width="1198"/>
  <unicode hex="0050"/>
  <outline>
    <contour>
      <point x="170" y="0" type="line"/>
      <point x="170" y="1456" type="line"/>
      <point x="649" y="1456" type="line" smooth="yes"/>
      <point x="889" y="1456"/>
      <point x="1150" y="1218"/>
      <point x="1150" y="996" type="qcurve" smooth="yes"/>
      <point x="1150" y="759"/>
      <point x="891" y="521"/>
      <point x="649" y="521" type="qcurve" smooth="yes"/>
      <point x="363" y="521" type="line"/>
      <point x="363" y="0" type="line"/>
    </contour>
    <contour>
      <point x="363" y="791" type="line"/>
      <point x="649" y="791" type="line" smooth="yes"/>
      <point x="830" y="791"/>
      <point x="957" y="907"/>
      <point x="957" y="995" type="qcurve" smooth="yes"/>
      <point x="957" y="1083"/>
      <point x="830" y="1185"/>
      <point x="649" y="1185" type="qcurve" smooth="yes"/>
      <point x="363" y="1185" type="line"/>
    </contour>
  </outline>
</glyph>
<glyph name="U" format="1">
  <advance width="1318"/>
  <unicode hex="0055"/>
  <outline>
    <contour>
      <point x="132" y="471" type="qcurve" smooth="yes"/>
      <point x="132" y="1456" type="line"/>
      <point x="324" y="1456" type="line"/>
      <point x="324" y="574" type="line" smooth="yes"/>
      <point x="324" y="414"/>
      <point x="487" y="252"/>
      <point x="658" y="252" type="qcurve" smooth="yes"/>
      <point x="831" y="252"/>
      <point x="994" y="414"/>
      <point x="994" y="574" type="qcurve" smooth="yes"/>
      <point x="994" y="1456" type="line"/>
      <point x="1186" y="1456" type="line"/>
      <point x="1186" y="471" type="line" smooth="yes"/>
      <point x="1186" y="225"/>
      <point x="868" y="-30"/>
      <point x="658" y="-30" type="qcurve" smooth="yes"/>
      <point x="435" y="-30"/>
      <point x="132" y="224"/>
    </contour>
    <contour>
      <point x="659.0" y="1432.0" type="move" name="top"/>
    </contour>
  </outline>
</glyph>
<glyph name="V" format="1">
  <advance width="1304"/>
  <unicode hex="0056"/>
  <outline>
    <contour>
      <point x="28" y="1456" type="line"/>
      <point x="225" y="1456" type="line"/>
      <point x="610" y="378" type="line" smooth="yes"/>
      <point x="620" y="350"/>
      <point x="641" y="265"/>
      <point x="645" y="244" type="qcurve"/>
      <point x="656" y="244" type="line"/>
      <point x="662" y="266"/>
      <point x="680" y="350"/>
      <point x="690" y="378" type="qcurve" smooth="yes"/>
      <point x="1081" y="1456" type="line"/>
      <point x="1276" y="1456" type="line"/>
      <point x="737" y="-10" type="line"/>
      <point x="566" y="-10" type="line"/>
    </contour>
  </outline>
</glyph>
<glyph name="r" format="1">
  <advance width="701"/>
  <unicode hex="0072"/>
  <outline>
    <contour>
      <point x="148" y="0" type="line"/>
      <point x="148" y="1052" type="line"/>
      <point x="316" y="1052" type="line"/>
      <point x="325" y="916" type="line"/>
      <point x="328" y="917" type="line"/>
      <point x="364" y="985"/>
      <point x="500" y="1086"/>
      <point x="589" y="1086" type="qcurve" smooth="yes"/>
      <point x="612" y="1086"/>
      <point x="659" y="1079"/>
      <point x="671" y="1074" type="qcurve"/>
      <point x="671" y="783" type="line"/>
      <point x="660" y="786"/>
      <point x="612" y="790"/>
      <point x="580" y="790" type="qcurve" smooth="yes"/>
      <point x="486" y="790"/>
      <point x="365" y="731"/>
      <point x="334" y="668" type="qcurve"/>
      <point x="334" y="0" type="line"/>
    </contour>
  </outline>
</glyph>
<glyph name="y" format="1">
  <advance width="930"/>
  <unicode hex="0079"/>
  <outline>
    <contour>
      <point x="32" y="-413" type="qcurve"/>
      <point x="32" y="-158" type="line"/>
      <point x="48" y="-160"/>
      <point x="81" y="-163"/>
      <point x="159" y="-163" type="qcurve" smooth="yes"/>
      <point x="250" y="-163"/>
      <point x="340" y="-121"/>
      <point x="373" y="-40" type="qcurve" smooth="yes"/>
      <point x="394" y="11" type="line"/>
      <point x="8" y="1052" type="line"/>
      <point x="200" y="1052" type="line"/>
      <point x="438" y="359" type="line" smooth="yes"/>
      <point x="452" y="318"/>
      <point x="471" y="233"/>
      <point x="474" y="200" type="qcurve"/>
      <point x="477" y="200" type="line"/>
      <point x="480" y="233"/>
      <point x="502" y="317"/>
      <point x="515" y="358" type="qcurve" smooth="yes"/>
      <point x="743" y="1052" type="line"/>
      <point x="930" y="1052" type="line"/>
      <point x="496" y="-167" type="line" smooth="yes"/>
      <point x="452" y="-291"/>
      <point x="302" y="-437"/>
      <point x="175" y="-437" type="qcurve" smooth="yes"/>
      <point x="138" y="-437"/>
      <point x="53" y="-426"/>
    </contour>
    <contour>
      <point x="470.0" y="1052.0" type="move" name="top"/>
    </contour>
  </outline>
</glyph>
<glyph name="asciitilde" format="1">
  <advance width="1170"/>
  <unicode hex="007E"/>
  <outline>
    <contour>
      <point x="645" y="706" type="qcurve" smooth="yes"/>
      <point x="657" y="698"/>
      <point x="722" y="667"/>
      <point x="815" y="667" type="qcurve" smooth="yes"/>
      <point x="894" y="667"/>
      <point x="940" y="731"/>
      <point x="940" y="834" type="qcurve"/>
      <point x="1121" y="834" type="line"/>
      <point x="1121" y="586"/>
      <point x="920" y="377"/>
      <point x="798" y="377" type="qcurve" smooth="yes"/>
      <point x="745" y="377"/>
      <point x="614" y="426"/>
      <point x="552" y="470" type="qcurve" smooth="yes"/>
      <point x="489" y="514"/>
      <point x="418" y="550"/>
      <point x="326" y="550" type="qcurve" smooth="yes"/>
      <point x="248" y="550"/>
      <point x="201" y="484"/>
      <point x="201" y="381" type="qcurve"/>
      <point x="20" y="381" type="line"/>
      <point x="20" y="630"/>
      <point x="221" y="838"/>
      <point x="343" y="838" type="qcurve" smooth="yes"/>
      <point x="395" y="838"/>
      <point x="527" y="793"/>
    </contour>
  </outline>
</glyph>
<glyph name="yen" format="1">
  <advance width="1076"/>
  <unicode hex="00A5"/>
  <outline>
    <contour>
      <point x="50" y="531" type="line"/>
      <point x="50" y="790" type="line"/>
      <point x="1026" y="790" type="line"/>
      <point x="1026" y="531" type="line"/>
    </contour>
    <contour>
      <point x="50" y="248" type="line"/>
      <point x="50" y="506" type="line"/>
      <point x="1026" y="506" type="line"/>
      <point x="1026" y="248" type="line"/>
    </contour>
    <contour>
      <point x="-38" y="1456" type="line"/>
      <point x="211" y="1456" type="line"/>
      <point x="489" y="870" type="line" smooth="yes"/>
      <point x="498" y="852"/>
      <point x="529" y="787"/>
      <point x="528" y="790" type="qcurve"/>
      <point x="548" y="790" type="line"/>
      <point x="547" y="787"/>
      <point x="574" y="839"/>
      <point x="589" y="871" type="qcurve" smooth="yes"/>
      <point x="858" y="1456" type="line"/>
      <point x="1115" y="1456" type="line"/>
      <point x="625" y="518" type="line"/>
      <point x="625" y="0" type="line"/>
      <point x="441" y="0" type="line"/>
      <point x="441" y="517" type="line"/>
    </contour>
  </outline>
</glyph>
<glyph name="brokenbar" format="1">
  <advance width="593"/>
  <unicode hex="00A6"/>
  <outline>
    <contour>
      <point x="209" y="-421" type="line"/>
      <point x="209" y="419" type="line"/>
      <point x="384" y="419" type="line"/>
      <point x="384" y="-421" type="line"/>
    </contour>
    <contour>
      <point x="209" y="616" type="line"/>
      <point x="209" y="1456" type="line"/>
      <point x="384" y="1456" type="line"/>
      <point x="384" y="616" type="line"/>
    </contour>
  </outline>
</glyph>
<glyph name="mu.math" format="1">
  <advance width="1147"/>
  <unicode hex="00B5"/>
  <outline>
    <contour>
      <point x="561" y="-18" type="qcurve" smooth="yes"/>
      <point x="527" y="-18"/>
      <point x="385" y="19"/>
      <point x="326" y="65" type="qcurve"/>
      <point x="326" y="-363" type="line"/>
      <point x="148" y="-363" type="line"/>
      <point x="148" y="1052" type="line"/>
      <point x="332" y="1052" type="line"/>
      <point x="332" y="468" type="line"/>
      <point x="332" y="336"/>
      <point x="439" y="247"/>
      <point x="553" y="247" type="qcurve" smooth="yes"/>
      <point x="689" y="247"/>
      <point x="789" y="305"/>
      <point x="814" y="358" type="qcurve"/>
      <point x="814" y="1052" type="line"/>
      <point x="999" y="1052" type="line"/>
      <point x="999" y="0" type="line"/>
      <point x="834" y="0" type="line"/>
      <point x="824" y="122" type="line"/>
      <point x="773" y="56"/>
      <point x="619" y="-18"/>
    </contour>
  </outline>
</glyph>
<glyph name="guillemetright" format="1">
  <advance width="1115"/>
  <unicode hex="00BB"/>
  <outline>
    <contour>
      <point x="672" y="1006" type="line"/>
      <point x="1037" y="646" type="line"/>
      <point x="1037" y="537" type="line"/>
      <point x="671" y="177" type="line"/>
      <point x="424" y="177" type="line"/>
      <point x="779" y="592" type="line"/>
      <point x="424" y="1006" type="line"/>
    </contour>
    <contour>
      <point x="212" y="1006" type="line"/>
      <point x="577" y="646" type="line"/>
      <point x="577" y="537" type="line"/>
      <point x="211" y="177" type="line"/>
      <point x="-36" y="177" type="line"/>
      <point x="319" y="592" type="line"/>
      <point x="-36" y="1006" type="line"/>
    </contour>
  </outline>
</glyph>
<glyph name="AE" format="1">
  <advance width="1789"/>
  <unicode hex="00C6"/>
  <outline>
    <contour>
      <point x="225" y="353" type="line"/>
      <point x="340" y="619" type="line"/>
      <point x="918" y="619" type="line"/>
      <point x="918" y="353" type="line"/>
    </contour>
    <contour>
      <point x="871" y="0" type="line"/>
      <point x="871" y="1236" type="line"/>
      <point x="104" y="0" type="line"/>
      <point x="-145" y="0" type="line"/>
      <point x="758" y="1456" type="line"/>
      <point x="1711" y="1456" type="line"/>
      <point x="1711" y="1185" type="line"/>
      <point x="1059" y="1185" type="line"/>
      <point x="1059" y="884" type="line"/>
      <point x="1619" y="884" type="line"/>
      <point x="1619" y="614" type="line"/>
      <point x="1059" y="614" type="line"/>
      <point x="1059" y="270" type="line"/>
      <point x="1721" y="270" type="line"/>
      <point x="1721" y="0" type="line"/>
    </contour>
  </outline>
</glyph>
<glyph name="Thorn" format="1">
  <advance width="1198"/>
  <unicode hex="00DE"/>
  <outline>
    <contour>
      <point x="363" y="265" type="line"/>
      <point x="363" y="0" type="line"/>
      <point x="170" y="0" type="line"/>
      <point x="170" y="1456" type="line"/>
      <point x="363" y="1456" type="line"/>
      <point x="363" y="1199" type="line"/>
      <point x="649" y="1199" type="line" smooth="yes"/>
      <point x="869" y="1199"/>
      <point x="1150" y="960"/>
      <point x="1150" y="739" type="qcurve" smooth="yes"/>
      <point x="1150" y="502"/>
      <point x="868" y="264"/>
      <point x="649" y="265" type="qcurve" smooth="yes"/>
    </contour>
    <contour>
      <point x="362" y="535" type="line"/>
      <point x="649" y="535" type="line" smooth="yes"/>
      <point x="830" y="535"/>
      <point x="957" y="670"/>
      <point x="957" y="738" type="qcurve" smooth="yes"/>
      <point x="957" y="796"/>
      <point x="830" y="928"/>
      <point x="649" y="929" type="qcurve" smooth="yes"/>
      <point x="362" y="929" type="line"/>
    </contour>
  </outline>
</glyph>
<glyph name="emdash" format="1">
  <advance width="1599"/>
  <unicode hex="2014"/>
  <outline>
    <contour>
      <point x="80" y="470" type="line"/>
      <point x="80" y="753" type="line"/>
      <point x="1519" y="753" type="line"/>
      <point x="1519" y="470" type="line"/>
    </contour>
  </outline>
</glyph>
<glyph name="numero" format="1">
  <advance width="2481"/>
  <unicode hex="2116"/>
  <outline>
    <contour>
      <point x="170" y="0" type="line"/>
      <point x="170" y="1456" type="line"/>
      <point x="349" y="1456" type="line"/>
      <point x="992" y="500" type="line" smooth="yes"/>
      <point x="1002" y="487"/>
      <point x="1042" y="424"/>
      <point x="1042" y="424" type="qcurve"/>
      <point x="1062" y="424" type="line"/>
      <point x="1067" y="339"/>
      <point x="1064" y="406"/>
      <point x="1064" y="466" type="qcurve" smooth="yes"/>
      <point x="1064" y="1456" type="line"/>
      <point x="1250" y="1456" type="line"/>
      <point x="1250" y="0" type="line"/>
      <point x="1070" y="0" type="line"/>
      <point x="430" y="953" type="line" smooth="yes"/>
      <point x="421" y="965"/>
      <point x="373" y="1029"/>
      <point x="373" y="1029" type="qcurve"/>
      <point x="365" y="1029" type="line"/>
      <point x="362" y="1072"/>
      <point x="356" y="966"/>
      <point x="356" y="987" type="qcurve" smooth="yes"/>
      <point x="356" y="0" type="line"/>
    </contour>
    <contour>
      <point x="1396" y="942" type="qcurve" smooth="yes"/>
      <point x="1396" y="959" type="line" smooth="yes"/>
      <point x="1396" y="1201"/>
      <point x="1672" y="1473"/>
      <point x="1878" y="1473" type="qcurve" smooth="yes"/>
      <point x="2093" y="1473"/>
      <point x="2365" y="1207"/>
      <point x="2365" y="959" type="qcurve" smooth="yes"/>
      <point x="2365" y="942" type="line" smooth="yes"/>
      <point x="2365" y="699"/>
      <point x="2086" y="430"/>
      <point x="1880" y="430" type="qcurve" smooth="yes"/>
      <point x="1672" y="430"/>
      <point x="1396" y="699"/>
    </contour>
    <contour>
      <point x="1580" y="961" type="qcurve" smooth="yes"/>
      <point x="1580" y="943" type="line" smooth="yes"/>
      <point x="1580" y="855"/>
      <point x="1710" y="695"/>
      <point x="1880" y="695" type="qcurve" smooth="yes"/>
      <point x="2047" y="695"/>
      <point x="2175" y="855"/>
      <point x="2175" y="943" type="qcurve" smooth="yes"/>
      <point x="2175" y="961" type="line" smooth="yes"/>
      <point x="2175" y="1047"/>
      <point x="2047" y="1208"/>
      <point x="1878" y="1208" type="qcurve" smooth="yes"/>
      <point x="1710" y="1208"/>
      <point x="1580" y="1047"/>
    </contour>
    <contour>
      <point x="1435" y="118" type="line"/>
      <point x="1435" y="396" type="line"/>
      <point x="2332" y="396" type="line"/>
      <point x="2332" y="118" type="line"/>
    </contour>
  </outline>
</glyph>
<glyph name="f_f_i" format="1">
  <advance width="1720"/>
  <unicode hex="FB03"/>
  <outline>
    <contour>
      <point x="973" y="0" type="line"/>
      <point x="787" y="0" type="line"/>
      <point x="787" y="1143" type="line" smooth="yes"/>
      <point x="787" y="1356"/>
      <point x="1021" y="1555"/>
      <point x="1183" y="1555" type="qcurve" smooth="yes"/>
      <point x="1219" y="1555"/>
      <point x="1369" y="1521"/>
      <point x="1485" y="1482" type="qcurve"/>
      <point x="1433" y="1242" type="line"/>
      <point x="1412" y="1250"/>
      <point x="1302" y="1282"/>
      <point x="1196" y="1282" type="qcurve" smooth="yes"/>
      <point x="1058" y="1282"/>
      <point x="973" y="1197"/>
      <point x="973" y="1143" type="qcurve" smooth="yes"/>
    </contour>
    <contour>
      <point x="1253" y="1092" type="line"/>
      <point x="1253" y="835" type="line"/>
      <point x="616" y="835" type="line"/>
      <point x="616" y="1092" type="line"/>
    </contour>
    <contour>
      <point x="1563" y="1092" type="line"/>
      <point x="1563" y="0" type="line"/>
      <point x="1377" y="0" type="line"/>
      <point x="1377" y="1092" type="line"/>
    </contour>
    <contour>
      <point x="383" y="0" type="line"/>
      <point x="197" y="0" type="line"/>
      <point x="197" y="1143" type="line" smooth="yes"/>
      <point x="197" y="1356"/>
      <point x="431" y="1555"/>
      <point x="593" y="1555" type="qcurve" smooth="yes"/>
      <point x="628" y="1555"/>
      <point x="750" y="1531"/>
      <point x="855" y="1497" type="qcurve"/>
      <point x="803" y="1258" type="line"/>
      <point x="778" y="1269"/>
      <point x="714" y="1282"/>
      <point x="606" y="1282" type="qcurve" smooth="yes"/>
      <point x="468" y="1282"/>
      <point x="383" y="1197"/>
      <point x="383" y="1143" type="qcurve" smooth="yes"/>
    </contour>
    <contour>
      <point x="663" y="1092" type="line"/>
      <point x="663" y="835" type="line"/>
      <point x="26" y="835" type="line"/>
      <point x="26" y="1092" type="line"/>
    </contour>
  </outline>
</glyph>
<glyph name="three.pnum" format="1">
  <advance width="1054"/>
  <outline>
    <contour>
      <point x="39" y="485" type="line"/>
      <point x="219" y="485" type="line"/>
      <point x="219" y="417" type="line" smooth="yes"/>
      <point x="219" y="350"/>
      <point x="359" y="241"/>
      <point x="515" y="241" type="qcurve" smooth="yes"/>
      <point x="681" y="241"/>
      <point x="812" y="354"/>
      <point x="812" y="429" type="qcurve" smooth="yes"/>
      <point x="812" y="513"/>
      <point x="655" y="622"/>
      <point x="481" y="622" type="qcurve" smooth="yes"/>
      <point x="358" y="622" type="line"/>
      <point x="358" y="890" type="line"/>
      <point x="465" y="890" type="line" smooth="yes"/>
      <point x="633" y="890"/>
      <point x="748" y="983"/>
      <point x="748" y="1048" type="qcurve" smooth="yes"/>
      <point x="748" y="1114"/>
      <point x="642" y="1209"/>
      <point x="502" y="1209" type="qcurve" smooth="yes"/>
      <point x="369" y="1209"/>
      <point x="265" y="1112"/>
      <point x="265" y="1059" type="qcurve" smooth="yes"/>
      <point x="265" y="991" type="line"/>
      <point x="85" y="991" type="line"/>
      <point x="85" y="1062" type="line" smooth="yes"/>
      <point x="85" y="1252"/>
      <point x="340" y="1477"/>
      <point x="502" y="1477" type="qcurve" smooth="yes"/>
      <point x="670" y="1477"/>
      <point x="930" y="1277"/>
      <point x="930" y="1069" type="qcurve" smooth="yes"/>
      <point x="930" y="936"/>
      <point x="824" y="754"/>
      <point x="712" y="763" type="qcurve"/>
      <point x="804" y="799"/>
      <point x="998" y="622"/>
      <point x="998" y="432" type="qcurve" smooth="yes"/>
      <point x="998" y="197"/>
      <point x="705" y="-27"/>
      <point x="515" y="-27" type="qcurve" smooth="yes"/>
      <point x="333" y="-27"/>
      <point x="39" y="193"/>
      <point x="39" y="416" type="qcurve" smooth="yes"/>
    </contour>
  </outline>
</glyph>
